# xmcd
#
# Track frame offsets:
#	150
#	15451
#	30845
#	46383
#	64442
#	84161
#	105481
#	121058
#	137196
#	151386
#	166108
#	186069
#	201465
#
# Disc length: 2975 seconds
#
# Revision: 0
# Processed by: cddbd v1.5.1PL2 Copyright (c) Steve Scherf et al.
# Submitted via: dBpowerAMP V4.0
#
DISCID=9e0b9d0d
DTITLE=Sarah McLeod - Beauty Was A Tiger
DYEAR=2005
DGENRE=Pop
TTITLE0=Let's Get Together
TTITLE1=Never Enough
TTITLE2=Private School Kid
TTITLE3=Loveless
TTITLE4=All But Gone
TTITLE5=Back To Earth
TTITLE6=Ava
TTITLE7=Hit It Baby
TTITLE8=Gutter Queen
TTITLE9=Ashtray Sunrise
TTITLE10=The Sinners And The Saints
TTITLE11=He Doesn't Love You
TTITLE12=Stand And Deliver
EXTD=
EXTT0=
EXTT1=
EXTT2=
EXTT3=
EXTT4=
EXTT5=
EXTT6=
EXTT7=
EXTT8=
EXTT9=
EXTT10=
EXTT11=
EXTT12=
PLAYORDER=
